<svg xmlns="http://www.w3.org/2000/svg" width="30" height="30" viewBox="0 0 30 30" fill="none">
  <mask id="mask0_776_223" style="mask-type:alpha" maskUnits="userSpaceOnUse" x="0" y="0" width="30" height="30">
    <rect width="30" height="30" fill="#D9D9D9"/>
  </mask>
  <g mask="url(#mask0_776_223)">
    <path d="M1.25 26.25L15 2.5L28.75 26.25H1.25ZM5.5625 23.75H24.4375L15 7.5L5.5625 23.75ZM15 22.5C15.3542 22.5 15.651 22.3802 15.8906 22.1406C16.1302 21.901 16.25 21.6042 16.25 21.25C16.25 20.8958 16.1302 20.599 15.8906 20.3594C15.651 20.1198 15.3542 20 15 20C14.6458 20 14.349 20.1198 14.1094 20.3594C13.8698 20.599 13.75 20.8958 13.75 21.25C13.75 21.6042 13.8698 21.901 14.1094 22.1406C14.349 22.3802 14.6458 22.5 15 22.5ZM13.75 18.75H16.25V12.5H13.75V18.75Z" fill="#5F7D95"/>
  </g>
</svg>