<svg width="17" height="17" viewBox="0 0 17 17" fill="none" xmlns="http://www.w3.org/2000/svg">
  <path d="M8.5 0C6.81886 0 5.17547 0.498497 3.77765 1.43253C2.37984 2.36655 1.29037 3.694 0.647024 5.24724C0.00367928 6.80041 -0.16465 8.50943 0.163324 10.1583C0.491299 11.8071 1.30085 13.3217 2.48959 14.5104C3.67834 15.6992 5.19289 16.5087 6.84173 16.8367C8.49057 17.1647 10.1996 17.0037 11.7528 16.3604C13.306 15.7171 14.6335 14.6276 15.5675 13.2298C16.5015 11.831 17 10.1876 17 8.5C16.9974 6.24651 16.101 4.08604 14.5075 2.49249C12.914 0.898939 10.7535 0.00241089 8.5 0ZM8.5 16C7.01664 16 5.56659 15.5601 4.33322 14.736C3.09985 13.9119 2.13856 12.7406 1.5709 11.3701C1.00325 9.99968 0.854721 8.49168 1.14411 7.03682C1.4335 5.58196 2.14781 4.24559 3.1967 3.1967C4.24559 2.14781 5.58196 1.4335 7.03682 1.14411C8.49168 0.854721 9.99968 1.00325 11.3701 1.5709C12.7406 2.13856 13.9119 3.09985 14.736 4.33322C15.5601 5.56659 16 7.01664 16 8.5C16 10.4884 15.2067 12.3947 13.8007 13.8007C12.3947 15.2067 10.4884 16 8.5 16Z" fill="#0E223D"/>
  <path d="M8.87115 9.903L12.8611 5.913C12.91 5.87634 12.9497 5.82871 12.977 5.77404C13.0043 5.71937 13.0185 5.65911 13.0185 5.59801C13.0185 5.5369 13.0043 5.47663 12.977 5.42196C12.9497 5.36729 12.91 5.31971 12.8611 5.283C12.8244 5.23414 12.7769 5.19449 12.7222 5.16718C12.6675 5.13987 12.6073 5.12566 12.5461 5.12566C12.485 5.12566 12.4248 5.13987 12.3701 5.16718C12.3154 5.19449 12.2679 5.23414 12.2311 5.283L8.55515 8.958L4.88015 5.283C4.67015 5.073 4.46015 5.178 4.25015 5.283C4.04015 5.493 4.14515 5.703 4.25015 5.913L8.24015 9.903C8.34515 10.113 8.66015 10.113 8.87115 9.903Z" fill="#0E223D"/>
  <path d="M8.87115 12.724L12.8611 8.734C12.91 8.69728 12.9497 8.64971 12.977 8.59504C13.0043 8.54037 13.0185 8.4801 13.0185 8.41999C13.0185 8.35889 13.0043 8.29862 12.977 8.24395C12.9497 8.18928 12.91 8.14171 12.8611 8.105C12.8244 8.05614 12.7769 8.01649 12.7222 7.98918C12.6675 7.96187 12.6073 7.94766 12.5461 7.94766C12.485 7.94766 12.4248 7.96187 12.3701 7.98918C12.3154 8.01649 12.2679 8.05614 12.2311 8.105L8.55515 11.78L4.88015 8.105C4.67015 7.895 4.46015 8 4.25015 8.105C4.04015 8.315 4.14515 8.525 4.25015 8.734L8.24015 12.724C8.34515 12.934 8.66015 12.934 8.87115 12.724Z" fill="#0E223D"/>
</svg>
