<svg width="8" height="8" xmlns="http://www.w3.org/2000/svg" fill="none">
 <defs>
  <clipPath id="clip0_0_1">
   <rect width="1366" height="768" fill="white" y="-338" x="-235" id="svg_1"/>
  </clipPath>
 </defs>
 <g>
  <title>Layer 1</title>
  <rect width="8" height="8" fill="#F5F5F5" id="svg_2"/>
  <g clip-path="url(#clip0_0_1)" id="svg_3">
   <rect width="1366" height="768" fill="#F5F7F9" y="-337.8125" x="-234.6875" id="svg_4"/>
   <path d="m52.3125,-220.8125l-286,0l0,651l286,0l0,-651z" fill="white" id="svg_5"/>
   <path d="m33.5724,-11.8125l-247.5199,0c-1.513,0 -2.74,1.3431 -2.74,3l0,24c0,1.6569 1.227,3 2.74,3l247.5199,0c1.5133,0 2.7401,-1.3431 2.7401,-3l0,-24c0,-1.6569 -1.2268,-3 -2.7401,-3z" fill="white" id="svg_6"/>
   <path d="m33.5725,-11.5625l-247.52,0c-1.387,0 -2.512,1.2312 -2.512,2.75l0,24c0,1.5188 1.125,2.75 2.512,2.75l247.52,0c1.3872,0 2.5117,-1.2312 2.5117,-2.75l0,-24c0,-1.5188 -1.1245,-2.75 -2.5117,-2.75z" stroke="#5F7D95" stroke-width="0.5" id="svg_7"/>
   <path d="m1.06234,7.68834c-0.09848,0.00002 -0.19599,-0.0194 -0.28694,-0.05715c-0.09095,-0.03776 -0.17355,-0.0931 -0.24306,-0.16285c-0.06969,-0.06965 -0.12498,-0.15235 -0.1627,-0.24338c-0.03772,-0.09102 -0.05714,-0.18859 -0.05714,-0.28712c0,-0.09853 0.01942,-0.1961 0.05714,-0.28712c0.03772,-0.09103 0.09301,-0.17373 0.1627,-0.24338l6,-6c0.06965,-0.06969 0.15235,-0.12498 0.24338,-0.1627c0.09102,-0.03772 0.18859,-0.05714 0.28712,-0.05714c0.09853,0 0.1961,0.01942 0.28712,0.05714c0.09103,0.03772 0.17373,0.09301 0.24338,0.1627c0.06963,0.06972 0.12484,0.15247 0.16247,0.24353c0.03764,0.09106 0.05696,0.18865 0.05687,0.28718c-0.00009,0.09853 -0.0196,0.19608 -0.05741,0.28707c-0.0378,0.09099 -0.09317,0.17364 -0.16293,0.24322l-6,6c-0.06951,0.06975 -0.15211,0.12509 -0.24306,0.16285c-0.09095,0.03775 -0.18846,0.05717 -0.28694,0.05715z" fill="#5F7D95" id="svg_8"/>
   <path d="m7.06233,7.6883c-0.09848,0.00003 -0.19599,-0.0194 -0.28694,-0.05715c-0.09095,-0.03775 -0.17355,-0.09309 -0.24306,-0.16284l-6,-6.00001c-0.14045,-0.14062 -0.21934,-0.33124 -0.21934,-0.52999c0,-0.19876 0.07889,-0.38938 0.21934,-0.53c0.14062,-0.14046 0.33125,-0.21935 0.53,-0.21935c0.19875,0 0.38937,0.07889 0.53,0.21935l6,5.99999c0.10475,0.10489 0.17608,0.23847 0.20496,0.38387c0.02889,0.1454 0.01404,0.29609 -0.04267,0.43306c-0.05672,0.13696 -0.15274,0.25405 -0.27596,0.33647c-0.12322,0.08242 -0.26809,0.12647 -0.41633,0.1266z" fill="#5F7D95" id="svg_9"/>
  </g>
 </g>
</svg>